<?xml version="1.0" encoding="utf-8"?>
<!-- Generator: Adobe Illustrator 22.1.0, SVG Export Plug-In . SVG Version: 6.00 Build 0)  -->
<svg version="1.1" id="Layer_1" xmlns="http://www.w3.org/2000/svg" xmlns:xlink="http://www.w3.org/1999/xlink" x="0px" y="0px"
	 viewBox="0 0 200 200" style="enable-background:new 0 0 200 200;" xml:space="preserve">
<style type="text/css">
	.Drop_x0020_Shadow{fill:none;}
	.Outer_x0020_Glow_x0020_5_x0020_pt{fill:none;}
	.Blue_x0020_Neon{fill:none;stroke:#8AACDA;stroke-width:7;stroke-linecap:round;stroke-linejoin:round;}
	.Chrome_x0020_Highlight{fill:url(#SVGID_1_);stroke:#FFFFFF;stroke-width:0.3629;stroke-miterlimit:1;}
	.Jive_GS{fill:#FFDD00;}
	.Alyssa_GS{fill:#A6D0E4;}
	.st0{fill:#4285F4;}
	.st1{fill:#34A853;}
	.st2{fill:#FBBC05;}
	.st3{fill:#EA4335;}
</style>
<linearGradient id="SVGID_1_" gradientUnits="userSpaceOnUse" x1="0" y1="0" x2="6.123234e-17" y2="-1">
	<stop  offset="0" style="stop-color:#656565"/>
	<stop  offset="0.618" style="stop-color:#1B1B1B"/>
	<stop  offset="0.6292" style="stop-color:#545454"/>
	<stop  offset="0.9831" style="stop-color:#3E3E3E"/>
</linearGradient>
<g>
	<path class="st0" d="M197,103.4c0-7-0.6-13.8-1.8-20.2h-92.8v38.2H155c-2.3,12.4-9.1,22.8-19.5,29.8v24.9h32
		C186.2,158.9,197,133.5,197,103.4z"/>
	<path class="st1" d="M102.1,199.5c26.7,0,49.2-8.9,65.5-24l-32-24.8c-8.9,5.9-20.2,9.5-33.5,9.5c-25.8,0-47.6-17.4-55.4-40.8H13.6
		v25.7C29.8,177.3,63.3,199.5,102.1,199.5z"/>
	<path class="st2" d="M46.6,119.5c-2-5.9-3.1-12.3-3.1-18.8c0-6.5,1.1-12.9,3.1-18.8V56.2H13.5C6.8,69.6,3,84.7,3,100.7
		c0,16,3.8,31.1,10.5,44.5L46.6,119.5z"/>
	<path class="st3" d="M102.4,41c14.5,0,27.6,5,37.9,14.8l28.4-28.4c-17.2-16-39.6-25.8-66.3-25.8c-38.7,0-72.2,22.2-88.5,54.6
		L47,81.9C54.8,58.4,76.6,41,102.4,41z"/>
</g>
</svg>
