<?xml version="1.0" encoding="utf-8"?>
<!-- Generator: Adobe Illustrator 22.1.0, SVG Export Plug-In . SVG Version: 6.00 Build 0)  -->
<svg version="1.1" id="Layer_1" xmlns="http://www.w3.org/2000/svg" xmlns:xlink="http://www.w3.org/1999/xlink" x="0px" y="0px"
	 viewBox="0 0 150 150" style="enable-background:new 0 0 150 150;" xml:space="preserve">
<style type="text/css">
	.Drop_x0020_Shadow{fill:none;}
	.Round_x0020_Corners_x0020_2_x0020_pt{fill:#FFFFFF;stroke:#231F20;stroke-miterlimit:10;}
	.Live_x0020_Reflect_x0020_X{fill:none;}
	.Bevel_x0020_Soft{fill:url(#SVGID_1_);}
	.Dusk{fill:#FFFFFF;}
	.Foliage_GS{fill:#FFDD00;}
	.Pompadour_GS{fill-rule:evenodd;clip-rule:evenodd;fill:#44ADE2;}
	.st0{fill:#E2E6F8;}
	.st1{fill:#47A9FB;}
	.st2{fill:#FEB7BD;}
	.st3{fill:#3F456A;}
	.st4{fill:#373C5B;}
</style>
<linearGradient id="SVGID_1_" gradientUnits="userSpaceOnUse" x1="0" y1="0" x2="0.7071" y2="0.7071">
	<stop  offset="0" style="stop-color:#DEDFE3"/>
	<stop  offset="0.1783" style="stop-color:#DADBDF"/>
	<stop  offset="0.3611" style="stop-color:#CECFD3"/>
	<stop  offset="0.546" style="stop-color:#B9BCBF"/>
	<stop  offset="0.7324" style="stop-color:#9CA0A2"/>
	<stop  offset="0.9181" style="stop-color:#787D7E"/>
	<stop  offset="1" style="stop-color:#656B6C"/>
</linearGradient>
<g>
	<circle class="st0" cx="74.9" cy="75" r="74.4"/>
	<circle class="st1" cx="74.9" cy="75" r="56.3"/>
	<circle class="st2" cx="74.9" cy="55.9" r="21.3"/>
	<path class="st3" d="M34.9,113.1c-0.1,0.8,0.2,1.7,0.7,2.2c10.1,9.9,24,15.9,39.2,15.9s29.1-6.1,39.2-15.9c0.6-0.6,0.9-1.4,0.7-2.2
		c-2.5-16.3-16.6-28.3-33.1-28.3H68C51.5,84.7,37.5,96.8,34.9,113.1L34.9,113.1z"/>
	<path class="st4" d="M36.8,106.3c-0.8,2.2-1.4,4.5-1.8,6.8c-0.1,0.8,0.2,1.7,0.7,2.2c10.1,9.9,24,15.9,39.2,15.9
		s29.1-6.1,39.2-15.9c0.6-0.6,0.9-1.4,0.7-2.2c-0.4-2.3-1-4.6-1.8-6.8c-10,9.3-23.4,14.9-38.2,14.9S46.8,115.5,36.8,106.3
		L36.8,106.3z"/>
</g>
</svg>
